<svg xmlns="http://www.w3.org/2000/svg" viewBox="0 0 312 176"><title>Respect_Pillar</title><g id="Layer_2" data-name="Layer 2"><path id="SVGID" d="M312,0H0V176H312Z" style="fill:#f7ac9f"/><path d="M141.9,114.57a2.5,2.5,0,0,0,.45-1.73c3.35.35,8.84,3.1,15.59,8.12,13,9.66,25.67,24,28.34,32.14s-5.69,6.82-18.67-2.84c-12.28-9.14-24.28-22.49-27.81-30.76A17.67,17.67,0,0,1,141.9,114.57Z"/><path d="M172.67,176H140.44l-1.64-61a13.26,13.26,0,0,0-2.59-8.4l-4.06-5.26a27.74,27.74,0,0,1-5.29-11.92l-1.31-7.07L113.63,54.66a2.34,2.34,0,0,1,1.2-3.31h0c2.08-.74,4.5.18,6.57,1.73A13.7,13.7,0,0,1,125.69,59l3.53,9.14a7.11,7.11,0,0,0,4.21,4.09l.11,0a5.92,5.92,0,0,0,7.8-4.51l8.43-46.35c.91-3.28,3.6-5.45,6.37-5.38a1.73,1.73,0,0,1,1.54,2l-3,40.06a1.3,1.3,0,0,0,2.51.57l16-40.86c1.55-3,4.61-4.62,7.32-4A1.72,1.72,0,0,1,181.59,16L169.54,58.77a.78.78,0,0,0,1.42.6L191.47,24c2-2.77,5.27-3.87,7.83-2.85a1.75,1.75,0,0,1,.8,2.39L182.24,62.63c-.34.74.95,1.52,1.47.86L203.8,42.62c2.32-2.5,5.71-3.18,8.14-1.85a1.74,1.74,0,0,1,.46,2.46L192,67.92a18.63,18.63,0,0,0-4,9.1L186.11,89.5a96.18,96.18,0,0,1-7.47,18.24l-4.24,7.93A22.62,22.62,0,0,0,171.74,127Z" style="fill:#c78982"/><path d="M138.8,115a9.45,9.45,0,0,0,.46,3.13c2.67,8.09,15.36,22.48,28.35,32.14,11.29,8.4,19.08,10.45,19.16,5.52l.06.05V176H128.57a161,161,0,0,0,6.52-29.94Z" style="fill:#fff"/><polygon points="260.7 152.82 260.7 152.83 260.71 152.84 260.7 152.82" style="fill:#fff"/><path d="M252.55,53c-2.43-.57-5.21.84-6.61,3.57L235.07,82.67l-1.49,3.53L228,99.61l4.63,5.19,1.15,1.28c2.25-4.27,5.7-8,9-11.55l.32-1.17L253.56,55A1.59,1.59,0,0,0,252.55,53Z" style="fill:#c78982"/><path d="M237.45,63.14l-2.78,25.45-3.07,28.08-1.83,3.12-10.54-8.58,3.58-14.82,7.37-30.53a6.18,6.18,0,0,1,5.95-4.58A1.59,1.59,0,0,1,237.45,63.14Z" style="fill:#c78982"/><path d="M223.89,71.14c-2.49,0-4.91,1.92-5.7,4.89l-8.45,45.89,12.42,9,3.14-58A1.58,1.58,0,0,0,223.89,71.14Z" style="fill:#c78982"/><path d="M234.28,122.68,243.71,102a34.22,34.22,0,0,1,3.76-6.32l3-4-4-11L218,97.65a4.68,4.68,0,0,1-7.3-3.56L209.4,73.33a4.18,4.18,0,0,0-4.46-4.23A2.17,2.17,0,0,0,203,71L195.5,116l.05,0h0a30,30,0,0,0,6.2,24.31l.84,1L214.54,176H252.7l-18.1-37.3A18.52,18.52,0,0,1,234.28,122.68Z" style="fill:#f2d8d8"/><path d="M276.33,54.84c-2.05-1.42-5.15-1.14-7.46.88L236.32,89.1l5.3,14.43,34.89-46.42A1.59,1.59,0,0,0,276.33,54.84Z" style="fill:#f2d8d8"/><path d="M67.09,72,65.85,84.17,74.9,92.7l2.61-18.53L88.76,46.28A6,6,0,0,0,86.64,39a1.62,1.62,0,0,0-2.32.49l-14.41,24A20.56,20.56,0,0,0,67.09,72Z" style="fill:#744c3a"/><path d="M76.59,77,73,88.75l7.2,10.14,6.2-17.66L102.89,56.1a6.06,6.06,0,0,0-.64-7.58,1.64,1.64,0,0,0-2.38,0L81,69.23A20.52,20.52,0,0,0,76.59,77Z" style="fill:#744c3a"/><path d="M84.26,81.22l-4.88,8.91,4.15,9.43L97.21,92.7l3.42-13.11A12.89,12.89,0,0,1,104,73.73l5.08-5.1a5,5,0,0,0,.73-6.27,1.33,1.33,0,0,0-1.92-.35l-9.63,7a13.37,13.37,0,0,0-2.19,2L88.88,79.2C86.85,80.68,85.46,79,84.26,81.22Z" style="fill:#744c3a"/><path d="M56.84,176l15.69-24.58A26.11,26.11,0,0,0,74,125.68l-.09-.17L62.37,103.58a11.54,11.54,0,0,1-1-8.27l2-8L57,75.69a20.47,20.47,0,0,1-2.54-8.6l-1.91-28A1.53,1.53,0,0,1,54,37.45h.08a6.06,6.06,0,0,1,5.93,4.78l5.39,25.16L82.93,91.77l4.52,3.68a1.71,1.71,0,0,0,2,.1h0a1.77,1.77,0,0,0,.74-1.94c-1.19-4.49-5.29-18.78-6-21.17A4.47,4.47,0,0,1,87.3,66.8h0a4.65,4.65,0,0,1,5.27,2.07s5.28,10.79,8.5,17.71a28.21,28.21,0,0,0,4.3,6.78,24.29,24.29,0,0,1,5.42,11.7l1.66,12c.94,6.83,1.67,11.93-4,19.73L94.38,176Z" style="fill:#99644c"/><path d="M56.84,176l13.39-21,29.2,7a4.16,4.16,0,0,1,2.77,5.4L99.12,176Z" style="fill:#f2d8d8"/><path d="M209.37,176l-2.79-13.31a5,5,0,0,1,.9-4h0a2.29,2.29,0,0,0,.34-2.13l-2.2-6.36,32.17-4.9,3.11,6.42a2.26,2.26,0,0,0,1.32,1.16l1,.35a5,5,0,0,1,2.75,2.27L257.66,176Z"/></g></svg>