<svg xmlns="http://www.w3.org/2000/svg" viewBox="0 0 312 176"><title>Safety_Pillar</title><g id="Layer_2" data-name="Layer 2"><rect width="312" height="176" style="fill:#9cc0ff"/><path d="M187.22,34A6.6,6.6,0,0,1,185.83,38,12.08,12.08,0,0,1,174,42.48a11.94,11.94,0,0,1-4.67-2l-5.66-4-.89-.62L116.15,3.39,118.55,0H163l.68,1.35,4.08,8.1A50.29,50.29,0,0,0,181.3,26.1l3.44,2.73A6.58,6.58,0,0,1,187.22,34Z" style="fill:#99644c"/><path d="M180.68,65.9l-6.31,3.65-31.23,9.91-23.88,21.91L113,105a6,6,0,0,1-8.14-2.18l-11-19.06a6.77,6.77,0,0,1,1-8.09h0a146.79,146.79,0,0,1,69.53-40.15h0a6.78,6.78,0,0,1,7.52,3.18l11,19.06A6,6,0,0,1,180.68,65.9Z"/><path d="M172.83,66.88l1.54,2.67-10.39,6a4.94,4.94,0,0,0-1.81,6.74l17.05,29.54a3.94,3.94,0,0,1-1.44,5.39l-18.94,10.94a3.94,3.94,0,0,1-5.39-1.45L136.39,97.18a4.92,4.92,0,0,0-6.74-1.81l-10.39,6-1.54-2.67a4,4,0,0,1,1.44-5.39l48.27-27.87A4,4,0,0,1,172.83,66.88Z" style="fill:#fff"/><rect x="152.79" y="106.82" width="19.89" height="12.43" rx="1.98" transform="translate(-34.71 96.51) rotate(-30)" style="fill:#9cc0ff"/><rect x="104.33" y="64.24" width="63.64" height="5.47" rx="2.74" transform="translate(-15.25 77.05) rotate(-30)" style="fill:#9cc0ff"/><path d="M243.2,176H155l-11-19a6.38,6.38,0,0,1,2.34-8.71l4.88,3.46a9.12,9.12,0,0,0,9.83.46l36.44-21a9.09,9.09,0,0,0,4.51-8.74l-.55-6a6.36,6.36,0,0,1,8.71,2.34Z"/><path d="M197.49,131.14l-36.45,21a9.1,9.1,0,0,1-9.82-.45l-4.89-3.46,55.12-31.82.55,6A9.11,9.11,0,0,1,197.49,131.14Z" style="fill:#276ef1"/><path d="M163.7,51.08,108.59,82.89l-10.65-9.3-.55-.49L81.28,59l-3.07-2.68-11.3-9.87-2.15-1.88L50.44,32.1l0,0L13.69,0h91.48l3.42,3,3.79,3.31,38.29,33.42,11.69,10.2Z"/><path d="M115.43,0a12,12,0,0,0-1.6,2.68l-1.45,3.61-3.79,9.43-6,14.94A50,50,0,0,0,98.4,50.73L98,72.54l0,1-.33,16.76-.16,7.92a14.31,14.31,0,0,1-14.31,14.31,4.93,4.93,0,0,1-4.93-4.93V56.36l-11.3-9.87-2.15-1.88L50.44,32.1l0,0A28.94,28.94,0,0,1,40.54,10.3V0Z" style="fill:#99644c"/><polygon points="143.63 -0.01 143.63 3.44 137.27 -0.01 143.63 -0.01" style="fill:#99644c"/><path d="M81.28.75V70.8h0a16.79,16.79,0,0,1-15-10.89,25.73,25.73,0,0,1-1.55-8.79V24.49Z" style="fill:#99644c"/><path d="M66.91,0V51.64a17.3,17.3,0,0,1-9.14-3.21,16.41,16.41,0,0,1-5.83-7.68,25.65,25.65,0,0,1-1.55-8.69V5.33L54.1,0Z" style="fill:#99644c"/><polygon points="163.7 -0.01 163.7 51.08 108.59 82.89 108.59 -0.01 163.7 -0.01" style="fill:#276ef1"/></g></svg>